<svg width="25" height="25" viewBox="0 0 25 25" fill="none" xmlns="http://www.w3.org/2000/svg">
<g opacity="0.8">
<path d="M12.4174 22.8447C6.48736 22.8447 1.66736 18.0247 1.66736 12.0947C1.66736 9.73473 2.41736 7.49473 3.83736 5.61473C4.08736 5.28473 4.55736 5.22473 4.88736 5.47473C5.21736 5.72473 5.28736 6.19473 5.03736 6.52473C3.81932 8.12569 3.16216 10.0831 3.16736 12.0947C3.16736 17.1947 7.31736 21.3447 12.4174 21.3447C17.5174 21.3447 21.6674 17.1947 21.6674 12.0947C21.6674 6.99473 17.5174 2.84473 12.4174 2.84473C12.0074 2.84473 11.6674 2.50473 11.6674 2.09473C11.6674 1.68473 12.0074 1.34473 12.4174 1.34473C18.3474 1.34473 23.1674 6.16473 23.1674 12.0947C23.1674 18.0247 18.3474 22.8447 12.4174 22.8447Z" fill="#6F7181"/>
<path d="M12.4174 19.8447C8.14736 19.8447 4.66736 16.3647 4.66736 12.0947C4.66736 11.6847 5.00736 11.3447 5.41736 11.3447C5.82736 11.3447 6.16736 11.6847 6.16736 12.0947C6.16736 15.5447 8.96736 18.3447 12.4174 18.3447C15.8674 18.3447 18.6674 15.5447 18.6674 12.0947C18.6674 8.64473 15.8674 5.84473 12.4174 5.84473C12.0074 5.84473 11.6674 5.50473 11.6674 5.09473C11.6674 4.68473 12.0074 4.34473 12.4174 4.34473C16.6874 4.34473 20.1674 7.82473 20.1674 12.0947C20.1674 16.3647 16.6874 19.8447 12.4174 19.8447Z" fill="#6F7181"/>
<path d="M12.4174 16.8447C12.0074 16.8447 11.6674 16.5047 11.6674 16.0947C11.6674 15.6847 12.0074 15.3447 12.4174 15.3447C14.2074 15.3447 15.6674 13.8847 15.6674 12.0947C15.6674 10.3047 14.2074 8.84473 12.4174 8.84473C12.0074 8.84473 11.6674 8.50473 11.6674 8.09473C11.6674 7.68473 12.0074 7.34473 12.4174 7.34473C15.0374 7.34473 17.1674 9.47473 17.1674 12.0947C17.1674 14.7147 15.0374 16.8447 12.4174 16.8447Z" fill="#6F7181"/>
</g>
</svg>
