<svg width="25" height="25" viewBox="0 0 25 25" fill="none" xmlns="http://www.w3.org/2000/svg">
<g opacity="0.8" clip-path="url(#clip0_4_6602)">
<path d="M8.41736 5.84473C8.00736 5.84473 7.66736 5.50473 7.66736 5.09473V2.09473C7.66736 1.68473 8.00736 1.34473 8.41736 1.34473C8.82736 1.34473 9.16736 1.68473 9.16736 2.09473V5.09473C9.16736 5.50473 8.82736 5.84473 8.41736 5.84473Z" fill="#6F7181"/>
<path d="M16.4174 5.84473C16.0074 5.84473 15.6674 5.50473 15.6674 5.09473V2.09473C15.6674 1.68473 16.0074 1.34473 16.4174 1.34473C16.8274 1.34473 17.1674 1.68473 17.1674 2.09473V5.09473C17.1674 5.50473 16.8274 5.84473 16.4174 5.84473Z" fill="#6F7181"/>
<path d="M15.0974 22.8447H8.41736C4.76736 22.8447 2.66736 20.7447 2.66736 17.0947V8.59473C2.66736 4.94473 4.76736 2.84473 8.41736 2.84473H16.4174C20.0674 2.84473 22.1674 4.94473 22.1674 8.59473V13.7247C22.1674 14.0147 21.9974 14.2747 21.7474 14.4047C21.4874 14.5247 21.1774 14.4947 20.9574 14.3147C19.3774 13.0547 16.9474 13.0547 15.3674 14.3447C14.836 14.7616 14.4074 15.2948 14.1144 15.9033C13.8214 16.5118 13.6719 17.1794 13.6774 17.8547C13.6774 18.6747 13.8974 19.4747 14.3274 20.1647C14.6574 20.7047 15.0674 21.1547 15.5474 21.4947C15.8074 21.6847 15.9274 22.0247 15.8274 22.3347C15.7074 22.6347 15.4274 22.8447 15.0974 22.8447ZM8.41736 4.34473C5.55736 4.34473 4.16736 5.73473 4.16736 8.59473V17.0947C4.16736 19.9547 5.55736 21.3447 8.41736 21.3447H13.3074C13.2074 21.2147 13.1174 21.0747 13.0374 20.9347C12.4674 20.0147 12.1674 18.9447 12.1674 17.8447C12.1674 15.9947 12.9874 14.2947 14.4274 13.1647C16.1374 11.7747 18.6674 11.4747 20.6674 12.3947V8.59473C20.6674 5.73473 19.2774 4.34473 16.4174 4.34473H8.41736Z" fill="#6F7181"/>
<path d="M13.4174 11.8447H7.41736C7.00736 11.8447 6.66736 11.5047 6.66736 11.0947C6.66736 10.6847 7.00736 10.3447 7.41736 10.3447H13.4174C13.8274 10.3447 14.1674 10.6847 14.1674 11.0947C14.1674 11.5047 13.8274 11.8447 13.4174 11.8447Z" fill="#6F7181"/>
<path d="M10.0374 16.8447H7.41736C7.00736 16.8447 6.66736 16.5047 6.66736 16.0947C6.66736 15.6847 7.00736 15.3447 7.41736 15.3447H10.0374C10.2363 15.3447 10.427 15.4237 10.5677 15.5644C10.7083 15.705 10.7874 15.8958 10.7874 16.0947C10.7874 16.2936 10.7083 16.4844 10.5677 16.6251C10.427 16.7657 10.2363 16.8447 10.0374 16.8447Z" fill="#6F7181"/>
<path d="M18.1674 23.8447C17.1338 23.8436 16.1182 23.575 15.2192 23.0651C14.3203 22.5552 13.5686 21.8212 13.0374 20.9347C12.4674 20.0147 12.1674 18.9447 12.1674 17.8447C12.1674 15.9947 12.9874 14.2947 14.4274 13.1647C16.5074 11.4747 19.7874 11.4647 21.8874 13.1347C22.6009 13.6944 23.1772 14.4097 23.5723 15.2259C23.9675 16.0422 24.171 16.9379 24.1674 17.8447C24.1674 18.9447 23.8674 20.0147 23.2974 20.9347C22.9836 21.4747 22.5775 21.9553 22.0974 22.3547C21.0158 23.3188 19.6162 23.8494 18.1674 23.8447ZM18.1674 13.3447C17.1474 13.3447 16.1474 13.6947 15.3574 14.3347C14.826 14.7516 14.3974 15.2848 14.1044 15.8933C13.8114 16.5018 13.6619 17.1694 13.6674 17.8447C13.6674 18.6647 13.8874 19.4647 14.3174 20.1547C14.6474 20.6947 15.0574 21.1447 15.5374 21.4847C16.3074 22.0447 17.2174 22.3447 18.1674 22.3447C19.2774 22.3447 20.2974 21.9547 21.1174 21.2247C21.4774 20.9247 21.7674 20.5747 22.0074 20.1647C22.4374 19.4647 22.6674 18.6647 22.6674 17.8447C22.6674 16.4547 22.0474 15.1747 20.9574 14.3147C20.1574 13.6747 19.1974 13.3447 18.1674 13.3447Z" fill="#6F7181"/>
<path d="M18.1674 21.0947C17.7574 21.0947 17.4174 20.7547 17.4174 20.3447C17.4174 19.3847 16.6274 18.5947 15.6674 18.5947C15.2574 18.5947 14.9174 18.2547 14.9174 17.8447C14.9174 17.4347 15.2574 17.0947 15.6674 17.0947C16.6274 17.0947 17.4174 16.3047 17.4174 15.3447C17.4174 14.9347 17.7574 14.5947 18.1674 14.5947C18.5774 14.5947 18.9174 14.9347 18.9174 15.3447C18.9174 16.3047 19.7074 17.0947 20.6674 17.0947C21.0774 17.0947 21.4174 17.4347 21.4174 17.8447C21.4174 18.2547 21.0774 18.5947 20.6674 18.5947C19.7074 18.5947 18.9174 19.3847 18.9174 20.3447C18.9174 20.7547 18.5774 21.0947 18.1674 21.0947ZM17.7374 17.8447C17.8874 17.9747 18.0374 18.1147 18.1674 18.2747C18.2974 18.1247 18.4374 17.9747 18.5974 17.8447C18.4474 17.7147 18.2974 17.5747 18.1674 17.4147C18.0374 17.5747 17.8974 17.7147 17.7374 17.8447Z" fill="#6F7181"/>
</g>
<defs>
<clipPath id="clip0_4_6602">
<rect width="24" height="24" fill="white" transform="translate(0.417358 0.0947266)"/>
</clipPath>
</defs>
</svg>
