<svg width="25" height="25" viewBox="0 0 25 25" fill="none" xmlns="http://www.w3.org/2000/svg">
<g opacity="0.8">
<path d="M12.4174 15.8447C10.3474 15.8447 8.66736 14.1647 8.66736 12.0947C8.66736 10.0247 10.3474 8.34473 12.4174 8.34473C14.4874 8.34473 16.1674 10.0247 16.1674 12.0947C16.1674 14.1647 14.4874 15.8447 12.4174 15.8447ZM12.4174 9.84473C11.1774 9.84473 10.1674 10.8547 10.1674 12.0947C10.1674 13.3347 11.1774 14.3447 12.4174 14.3447C13.6574 14.3447 14.6674 13.3347 14.6674 12.0947C14.6674 10.8547 13.6574 9.84473 12.4174 9.84473Z" fill="#6F7181"/>
<path d="M15.6274 22.2847C15.4174 22.2847 15.2074 22.2547 14.9974 22.2047C14.3774 22.0347 13.8574 21.6447 13.5274 21.0947L13.4074 20.8947C12.8174 19.8747 12.0074 19.8747 11.4174 20.8947L11.3074 21.0847C10.9774 21.6447 10.4574 22.0447 9.83736 22.2047C9.20736 22.3747 8.55736 22.2847 8.00736 21.9547L6.28736 20.9647C5.98514 20.7916 5.72002 20.5605 5.50716 20.2848C5.29431 20.0091 5.1379 19.6941 5.04688 19.3579C4.95587 19.0217 4.93202 18.6708 4.97672 18.3254C5.02141 17.98 5.13377 17.6467 5.30736 17.3447C5.59736 16.8347 5.67736 16.3747 5.50736 16.0847C5.33736 15.7947 4.90736 15.6247 4.31736 15.6247C2.85736 15.6247 1.66736 14.4347 1.66736 12.9747V11.2147C1.66736 9.75474 2.85736 8.56474 4.31736 8.56474C4.90736 8.56474 5.33736 8.39474 5.50736 8.10474C5.67736 7.81474 5.60736 7.35474 5.30736 6.84474C4.95736 6.23474 4.86736 5.51474 5.04736 4.83474C5.22736 4.14474 5.66736 3.57474 6.28736 3.22474L8.01736 2.23474C9.14736 1.56474 10.6374 1.95474 11.3174 3.10474L11.4374 3.30474C12.0274 4.32474 12.8374 4.32474 13.4274 3.30474L13.5374 3.11474C14.2174 1.95474 15.7074 1.56474 16.8474 2.24474L18.5674 3.23474C18.8696 3.4079 19.1347 3.63895 19.3476 3.91467C19.5604 4.19038 19.7168 4.50536 19.8078 4.84157C19.8989 5.17779 19.9227 5.52865 19.878 5.87408C19.8333 6.21952 19.7209 6.55276 19.5474 6.85474C19.2574 7.36474 19.1774 7.82474 19.3474 8.11474C19.5174 8.40474 19.9474 8.57474 20.5374 8.57474C21.9974 8.57474 23.1874 9.76474 23.1874 11.2247V12.9847C23.1874 14.4447 21.9974 15.6347 20.5374 15.6347C19.9474 15.6347 19.5174 15.8047 19.3474 16.0947C19.1774 16.3847 19.2474 16.8447 19.5474 17.3547C19.8974 17.9647 19.9974 18.6847 19.8074 19.3647C19.7204 19.7031 19.5657 20.0202 19.3526 20.297C19.1394 20.5737 18.8723 20.8043 18.5674 20.9747L16.8374 21.9647C16.4574 22.1747 16.0474 22.2847 15.6274 22.2847ZM12.4174 18.5847C13.3074 18.5847 14.1374 19.1447 14.7074 20.1347L14.8174 20.3247C14.9374 20.5347 15.1374 20.6847 15.3774 20.7447C15.6174 20.8047 15.8574 20.7747 16.0574 20.6547L17.7874 19.6547C18.0514 19.5024 18.2446 19.2521 18.3252 18.9581C18.4057 18.6642 18.3669 18.3503 18.2174 18.0847C17.6474 17.1047 17.5774 16.0947 18.0174 15.3247C18.4574 14.5547 19.3674 14.1147 20.5074 14.1147C21.1474 14.1147 21.6574 13.6047 21.6574 12.9647V11.2047C21.6574 10.5747 21.1474 10.0547 20.5074 10.0547C19.3674 10.0547 18.4574 9.61474 18.0174 8.84474C17.5774 8.07474 17.6474 7.06474 18.2174 6.08474C18.3674 5.82474 18.4074 5.51474 18.3274 5.21474C18.2474 4.91474 18.0574 4.67474 17.7974 4.51474L16.0674 3.52474C15.963 3.46354 15.8476 3.42353 15.7277 3.40699C15.6079 3.39046 15.4859 3.39773 15.3689 3.42838C15.2519 3.45903 15.142 3.51247 15.0457 3.58563C14.9493 3.65879 14.8683 3.75024 14.8074 3.85474L14.6974 4.04474C14.1274 5.03474 13.2974 5.59474 12.4074 5.59474C11.5174 5.59474 10.6874 5.03474 10.1174 4.04474L10.0074 3.84474C9.88309 3.64037 9.68397 3.49258 9.45237 3.43281C9.22078 3.37304 8.975 3.40603 8.76736 3.52474L7.03736 4.52474C6.77334 4.67703 6.58007 4.92736 6.49956 5.22133C6.41905 5.5153 6.45778 5.82917 6.60736 6.09474C7.17736 7.07474 7.24736 8.08474 6.80736 8.85474C6.36736 9.62474 5.45736 10.0647 4.31736 10.0647C3.67736 10.0647 3.16736 10.5747 3.16736 11.2147V12.9747C3.16736 13.6047 3.67736 14.1247 4.31736 14.1247C5.45736 14.1247 6.36736 14.5647 6.80736 15.3347C7.24736 16.1047 7.17736 17.1147 6.60736 18.0947C6.45736 18.3547 6.41736 18.6647 6.49736 18.9647C6.57736 19.2647 6.76736 19.5047 7.02736 19.6647L8.75736 20.6547C8.96736 20.7847 9.21736 20.8147 9.44736 20.7547C9.68736 20.6947 9.88736 20.5347 10.0174 20.3247L10.1274 20.1347C10.6974 19.1547 11.5274 18.5847 12.4174 18.5847Z" fill="#6F7181"/>
</g>
</svg>
