<svg width="25" height="25" viewBox="0 0 25 25" fill="none" xmlns="http://www.w3.org/2000/svg">
<g opacity="0.8">
<path d="M5.61737 10.5547C5.42737 10.5547 5.22737 10.4747 5.08737 10.3347C4.98318 10.2288 4.91246 10.0946 4.88401 9.9488C4.85556 9.80299 4.87064 9.65203 4.92737 9.51473L6.78737 5.07473C6.82737 4.98473 6.84737 4.92473 6.87737 4.87473C8.35737 1.46473 10.2474 0.634726 13.5874 1.91473C13.7774 1.98473 13.9274 2.13473 14.0074 2.32473C14.0874 2.51473 14.0874 2.72473 14.0074 2.91473L11.0774 9.71473C10.9574 9.99473 10.6874 10.1647 10.3874 10.1647H7.53737C6.96737 10.1647 6.42737 10.2747 5.90737 10.4947C5.81737 10.5347 5.71737 10.5547 5.61737 10.5547ZM11.0274 2.84473C9.78737 2.84473 9.02737 3.65473 8.23737 5.49473C8.22737 5.52473 8.20737 5.55473 8.19737 5.58473L6.88737 8.69473C7.10737 8.67473 7.31737 8.66473 7.53737 8.66473H9.88737L12.2974 3.06473C11.8274 2.91473 11.4074 2.84473 11.0274 2.84473Z" fill="#6F7181"/>
<path d="M18.7074 10.3647C18.6374 10.3647 18.5574 10.3547 18.4874 10.3347C18.1074 10.2247 17.7074 10.1647 17.2874 10.1647H10.3874C10.1374 10.1647 9.89737 10.0347 9.75737 9.82472C9.69138 9.71977 9.6515 9.60054 9.64106 9.47701C9.63062 9.35349 9.64993 9.22925 9.69737 9.11472L12.5974 2.38472C12.7474 2.02472 13.1874 1.77472 13.5574 1.90472C13.6774 1.94472 13.7874 1.99472 13.9074 2.04472L16.2674 3.03472C17.6474 3.60472 18.5674 4.20472 19.1674 4.92472C19.2874 5.06472 19.3874 5.21472 19.4874 5.37472C19.5974 5.54472 19.6974 5.74472 19.7674 5.95472C19.7974 6.02472 19.8474 6.15472 19.8774 6.29472C20.1574 7.24472 20.0174 8.40472 19.4174 9.90472C19.3548 10.0408 19.2548 10.1563 19.1291 10.2378C19.0034 10.3192 18.8572 10.3632 18.7074 10.3647ZM11.5274 8.66472H17.2974C17.6174 8.66472 17.9274 8.69472 18.2374 8.74472C18.5174 7.87472 18.5774 7.20472 18.4174 6.66472C18.3974 6.57472 18.3774 6.53472 18.3674 6.49472C18.3074 6.33472 18.2674 6.24472 18.2174 6.16472C18.1474 6.05472 18.0974 5.96472 18.0174 5.87472C17.5874 5.35472 16.8274 4.87472 15.6874 4.40472L13.7174 3.58472L11.5274 8.66472Z" fill="#6F7181"/>
<path d="M16.3174 22.8447H8.51736C8.23736 22.8447 7.97736 22.8247 7.71736 22.7947C4.20736 22.5647 2.20736 20.5547 1.96736 17.0047C1.93736 16.7847 1.91736 16.5147 1.91736 16.2447V14.2947C1.91736 12.0447 3.25736 10.0147 5.32736 9.11473C6.03736 8.81473 6.77736 8.66473 7.54736 8.66473H17.3074C17.8774 8.66473 18.4274 8.74473 18.9374 8.90473C21.2874 9.61473 22.9374 11.8347 22.9374 14.2947V16.2447C22.9374 16.4647 22.9274 16.6747 22.9174 16.8747C22.6974 20.7847 20.4174 22.8447 16.3174 22.8447ZM7.53736 10.1647C6.96736 10.1647 6.42736 10.2747 5.90736 10.4947C4.38736 11.1547 3.40736 12.6447 3.40736 14.2947V16.2447C3.40736 16.4547 3.42736 16.6647 3.44736 16.8647C3.63736 19.7147 5.03736 21.1147 7.84736 21.3047C8.09736 21.3347 8.29736 21.3547 8.50736 21.3547H16.3074C19.6074 21.3547 21.2274 19.9047 21.3874 16.8047C21.3974 16.6247 21.4074 16.4447 21.4074 16.2447V14.2947C21.4074 12.4847 20.1974 10.8647 18.4774 10.3347C18.0974 10.2247 17.6974 10.1647 17.2774 10.1647H7.53736Z" fill="#6F7181"/>
<path d="M2.65735 15.0447C2.24735 15.0447 1.90735 14.7047 1.90735 14.2947V11.3647C1.90735 8.21471 4.13735 5.49471 7.21735 4.89471C7.48735 4.84471 7.76735 4.94471 7.94735 5.15471C8.11735 5.36471 8.16735 5.66471 8.05735 5.91471L6.30735 10.0947C6.22964 10.2706 6.09119 10.4126 5.91735 10.4947C4.39735 11.1547 3.41735 12.6447 3.41735 14.2947C3.40735 14.7047 3.07735 15.0447 2.65735 15.0447ZM6.01735 6.91471C5.37679 7.27583 4.82179 7.77105 4.39031 8.3665C3.95883 8.96194 3.66106 9.64355 3.51735 10.3647C3.95735 9.91471 4.46735 9.53471 5.04735 9.25471L6.01735 6.91471Z" fill="#6F7181"/>
<path d="M22.1774 15.0447C21.7674 15.0447 21.4274 14.7047 21.4274 14.2947C21.4274 12.4847 20.2174 10.8647 18.4974 10.3347C18.3981 10.3054 18.306 10.2556 18.227 10.1887C18.148 10.1217 18.0838 10.039 18.0386 9.94577C17.9935 9.85258 17.9682 9.75099 17.9646 9.64749C17.9609 9.54399 17.9789 9.44087 18.0174 9.34472C18.4874 8.17472 18.6074 7.32472 18.4174 6.66472C18.3974 6.57472 18.3774 6.53472 18.3674 6.49472C18.3045 6.35281 18.2872 6.19494 18.3176 6.04276C18.348 5.89058 18.4248 5.75154 18.5374 5.64472C18.7674 5.42472 19.1174 5.37472 19.3974 5.52472C20.4643 6.08143 21.3577 6.92052 21.9802 7.95039C22.6027 8.98025 22.9304 10.1613 22.9274 11.3647V14.2947C22.9274 14.7047 22.5874 15.0447 22.1774 15.0447ZM19.6674 9.18472C20.2974 9.47472 20.8574 9.88472 21.3274 10.3747C21.1374 9.39472 20.6674 8.50472 19.9774 7.80472C19.9274 8.22472 19.8274 8.68472 19.6674 9.18472Z" fill="#6F7181"/>
</g>
</svg>
