<svg width="354" height="288" viewBox="0 0 354 288" fill="none" xmlns="http://www.w3.org/2000/svg">
<g filter="url(#filter0_d_48_1280)">
<rect width="354" height="288" rx="16" fill="white"/>
</g>
<path d="M148.729 46.0586C149.369 46.3653 149.876 46.8053 150.249 47.3786C150.636 47.9519 150.829 48.6119 150.829 49.3586C150.829 50.4786 150.436 51.4186 149.649 52.1786C148.863 52.9386 147.903 53.3186 146.769 53.3186H140.729V39.3186H146.329C147.423 39.3186 148.349 39.6853 149.109 40.4186C149.869 41.1519 150.249 42.0586 150.249 43.1386C150.249 44.3786 149.743 45.3519 148.729 46.0586ZM146.329 41.0586H142.589V45.3386H146.329C146.916 45.3386 147.409 45.1319 147.809 44.7186C148.209 44.3053 148.409 43.7986 148.409 43.1986C148.409 42.6119 148.203 42.1119 147.789 41.6986C147.389 41.2719 146.903 41.0586 146.329 41.0586ZM146.769 51.5786C147.396 51.5786 147.923 51.3586 148.349 50.9186C148.776 50.4786 148.989 49.9386 148.989 49.2986C148.989 48.6719 148.769 48.1386 148.329 47.6986C147.903 47.2586 147.383 47.0386 146.769 47.0386H142.589V51.5786H146.769ZM161.193 43.3186H162.933V53.3186H161.193V51.5986C160.326 52.9186 159.066 53.5786 157.413 53.5786C156.013 53.5786 154.819 53.0719 153.833 52.0586C152.846 51.0319 152.353 49.7853 152.353 48.3186C152.353 46.8519 152.846 45.6119 153.833 44.5986C154.819 43.5719 156.013 43.0586 157.413 43.0586C159.066 43.0586 160.326 43.7186 161.193 45.0386V43.3186ZM157.633 51.8986C158.646 51.8986 159.493 51.5586 160.173 50.8786C160.853 50.1853 161.193 49.3319 161.193 48.3186C161.193 47.3053 160.853 46.4586 160.173 45.7786C159.493 45.0853 158.646 44.7386 157.633 44.7386C156.633 44.7386 155.793 45.0853 155.113 45.7786C154.433 46.4586 154.093 47.3053 154.093 48.3186C154.093 49.3319 154.433 50.1853 155.113 50.8786C155.793 51.5586 156.633 51.8986 157.633 51.8986ZM165.569 53.3186V38.7186H167.309V53.3186H165.569ZM178.243 43.3186H179.983V53.3186H178.243V51.5986C177.377 52.9186 176.117 53.5786 174.463 53.5786C173.063 53.5786 171.87 53.0719 170.883 52.0586C169.897 51.0319 169.403 49.7853 169.403 48.3186C169.403 46.8519 169.897 45.6119 170.883 44.5986C171.87 43.5719 173.063 43.0586 174.463 43.0586C176.117 43.0586 177.377 43.7186 178.243 45.0386V43.3186ZM174.683 51.8986C175.697 51.8986 176.543 51.5586 177.223 50.8786C177.903 50.1853 178.243 49.3319 178.243 48.3186C178.243 47.3053 177.903 46.4586 177.223 45.7786C176.543 45.0853 175.697 44.7386 174.683 44.7386C173.683 44.7386 172.843 45.0853 172.163 45.7786C171.483 46.4586 171.143 47.3053 171.143 48.3186C171.143 49.3319 171.483 50.1853 172.163 50.8786C172.843 51.5586 173.683 51.8986 174.683 51.8986ZM187.6 43.0586C188.773 43.0586 189.713 43.4319 190.42 44.1786C191.126 44.9119 191.48 45.9119 191.48 47.1786V53.3186H189.74V47.2786C189.74 46.4653 189.52 45.8386 189.08 45.3986C188.64 44.9453 188.033 44.7186 187.26 44.7186C186.393 44.7186 185.693 44.9919 185.16 45.5386C184.626 46.0719 184.36 46.8986 184.36 48.0186V53.3186H182.62V43.3186H184.36V44.7586C185.066 43.6253 186.146 43.0586 187.6 43.0586ZM198.609 53.5786C197.102 53.5786 195.849 53.0786 194.849 52.0786C193.849 51.0653 193.349 49.8119 193.349 48.3186C193.349 46.8253 193.849 45.5786 194.849 44.5786C195.849 43.5653 197.102 43.0586 198.609 43.0586C199.595 43.0586 200.482 43.2986 201.269 43.7786C202.055 44.2453 202.642 44.8786 203.029 45.6786L201.569 46.5186C201.315 45.9853 200.922 45.5586 200.389 45.2386C199.869 44.9186 199.275 44.7586 198.609 44.7586C197.609 44.7586 196.769 45.0986 196.089 45.7786C195.422 46.4586 195.089 47.3053 195.089 48.3186C195.089 49.3186 195.422 50.1586 196.089 50.8386C196.769 51.5186 197.609 51.8586 198.609 51.8586C199.275 51.8586 199.875 51.7053 200.409 51.3986C200.942 51.0786 201.349 50.6519 201.629 50.1186L203.109 50.9786C202.682 51.7653 202.069 52.3986 201.269 52.8786C200.469 53.3453 199.582 53.5786 198.609 53.5786ZM205.91 49.1186C206.083 50.0119 206.49 50.7053 207.13 51.1986C207.783 51.6919 208.583 51.9386 209.53 51.9386C210.85 51.9386 211.81 51.4519 212.41 50.4786L213.89 51.3186C212.917 52.8253 211.45 53.5786 209.49 53.5786C207.903 53.5786 206.61 53.0853 205.61 52.0986C204.623 51.0986 204.13 49.8386 204.13 48.3186C204.13 46.8119 204.617 45.5586 205.59 44.5586C206.563 43.5586 207.823 43.0586 209.37 43.0586C210.837 43.0586 212.03 43.5786 212.95 44.6186C213.883 45.6453 214.35 46.8853 214.35 48.3386C214.35 48.5919 214.33 48.8519 214.29 49.1186H205.91ZM209.37 44.6986C208.437 44.6986 207.663 44.9653 207.05 45.4986C206.437 46.0186 206.057 46.7186 205.91 47.5986H212.59C212.443 46.6519 212.07 45.9319 211.47 45.4386C210.87 44.9453 210.17 44.6986 209.37 44.6986Z" fill="#A1A2AF"/>
<path d="M121.901 87.8306C121.901 89.4733 121.379 90.8079 120.333 91.8346C119.288 92.8426 117.925 93.4493 116.245 93.6546V96.1186H114.369V93.6826C112.801 93.5706 111.457 93.1319 110.337 92.3666C109.217 91.6013 108.415 90.5653 107.929 89.2586L111.261 87.3266C111.859 88.8199 112.895 89.6693 114.369 89.8746V85.0306C114.351 85.0306 114.341 85.0306 114.341 85.0306L114.285 85.0026C113.632 84.7599 113.1 84.5453 112.689 84.3586C112.279 84.1719 111.793 83.9013 111.233 83.5466C110.692 83.1919 110.263 82.8279 109.945 82.4546C109.647 82.0626 109.376 81.5679 109.133 80.9706C108.909 80.3733 108.797 79.7199 108.797 79.0106C108.797 77.3679 109.329 76.0519 110.393 75.0626C111.476 74.0733 112.801 73.5039 114.369 73.3546V70.9186H116.245V73.4106C118.784 73.7093 120.576 75.0253 121.621 77.3586L118.373 79.2626C117.925 78.1426 117.216 77.4613 116.245 77.2186V81.8946C117.981 82.5853 119.148 83.1359 119.745 83.5466C121.183 84.5733 121.901 86.0013 121.901 87.8306ZM112.633 79.0386C112.633 79.4493 112.764 79.8133 113.025 80.1306C113.287 80.4293 113.735 80.7373 114.369 81.0546V77.1346C113.809 77.2466 113.38 77.4706 113.081 77.8066C112.783 78.1426 112.633 78.5533 112.633 79.0386ZM116.245 89.8186C117.44 89.5573 118.037 88.9039 118.037 87.8586C118.037 87.3919 117.888 86.9999 117.589 86.6826C117.309 86.3653 116.861 86.0666 116.245 85.7866V89.8186ZM137.437 80.1306C137.437 81.6426 137.045 82.9679 136.261 84.1066H136.289L130.185 93.3186H125.761L130.129 86.9346C128.094 86.8973 126.433 86.2533 125.145 85.0026C123.875 83.7333 123.241 82.1093 123.241 80.1306C123.241 78.1333 123.894 76.4999 125.201 75.2306C126.526 73.9613 128.234 73.3266 130.325 73.3266C132.434 73.3266 134.142 73.9613 135.449 75.2306C136.774 76.4813 137.437 78.1146 137.437 80.1306ZM127.077 80.1306C127.077 81.1013 127.385 81.8759 128.001 82.4546C128.635 83.0333 129.41 83.3226 130.325 83.3226C131.277 83.3226 132.061 83.0333 132.677 82.4546C133.293 81.8759 133.601 81.1013 133.601 80.1306C133.601 79.1599 133.293 78.3946 132.677 77.8346C132.061 77.2559 131.277 76.9666 130.325 76.9666C129.41 76.9666 128.635 77.2559 128.001 77.8346C127.385 78.4133 127.077 79.1786 127.077 80.1306ZM147.109 81.6706C148.435 82.0626 149.508 82.7533 150.329 83.7426C151.169 84.7133 151.589 85.8893 151.589 87.2706C151.589 89.2866 150.908 90.8639 149.545 92.0026C148.201 93.1413 146.549 93.7106 144.589 93.7106C143.059 93.7106 141.687 93.3653 140.473 92.6746C139.279 91.9653 138.411 90.9293 137.869 89.5666L141.173 87.6626C141.659 89.1746 142.797 89.9306 144.589 89.9306C145.579 89.9306 146.344 89.6973 146.885 89.2306C147.445 88.7453 147.725 88.0919 147.725 87.2706C147.725 86.4679 147.445 85.8239 146.885 85.3386C146.344 84.8533 145.579 84.6106 144.589 84.6106H143.749L142.265 82.3706L146.129 77.3306H138.457V73.7186H150.777V76.9106L147.109 81.6706ZM158.348 89.4546L156.248 97.2386H153.308L154.428 89.4546H158.348ZM167.569 80.8586C169.455 80.8586 171.041 81.4279 172.329 82.5666C173.617 83.6866 174.261 85.2546 174.261 87.2706C174.261 89.2866 173.58 90.8639 172.217 92.0026C170.873 93.1413 169.221 93.7106 167.261 93.7106C165.675 93.7106 164.275 93.3559 163.061 92.6466C161.848 91.9373 160.971 90.8919 160.429 89.5106L163.733 87.5786C164.219 89.1466 165.395 89.9306 167.261 89.9306C168.251 89.9306 169.016 89.6973 169.557 89.2306C170.117 88.7453 170.397 88.0919 170.397 87.2706C170.397 86.4679 170.127 85.8239 169.585 85.3386C169.044 84.8533 168.307 84.6106 167.373 84.6106H161.437L162.221 73.7186H173.337V77.3306H165.805L165.553 80.8586H167.569ZM183.049 80.0746C185.084 80.1306 186.736 80.7933 188.005 82.0626C189.275 83.3133 189.909 84.9186 189.909 86.8786C189.909 88.8759 189.247 90.5186 187.921 91.8066C186.596 93.0759 184.888 93.7106 182.797 93.7106C180.707 93.7106 178.999 93.0759 177.673 91.8066C176.367 90.5373 175.713 88.8946 175.713 86.8786C175.713 85.3853 176.096 84.0693 176.861 82.9306L182.965 73.7186H187.389L183.049 80.0746ZM180.473 89.2026C181.089 89.7813 181.864 90.0706 182.797 90.0706C183.731 90.0706 184.505 89.7813 185.121 89.2026C185.756 88.6239 186.073 87.8493 186.073 86.8786C186.073 85.9266 185.756 85.1613 185.121 84.5826C184.505 84.0039 183.731 83.7146 182.797 83.7146C181.864 83.7146 181.089 84.0039 180.473 84.5826C179.857 85.1426 179.549 85.9079 179.549 86.8786C179.549 87.8493 179.857 88.6239 180.473 89.2026ZM198.526 80.0746C200.56 80.1306 202.212 80.7933 203.482 82.0626C204.751 83.3133 205.386 84.9186 205.386 86.8786C205.386 88.8759 204.723 90.5186 203.398 91.8066C202.072 93.0759 200.364 93.7106 198.274 93.7106C196.183 93.7106 194.475 93.0759 193.15 91.8066C191.843 90.5373 191.19 88.8946 191.19 86.8786C191.19 85.3853 191.572 84.0693 192.338 82.9306L198.442 73.7186H202.866L198.526 80.0746ZM195.95 89.2026C196.566 89.7813 197.34 90.0706 198.274 90.0706C199.207 90.0706 199.982 89.7813 200.598 89.2026C201.232 88.6239 201.55 87.8493 201.55 86.8786C201.55 85.9266 201.232 85.1613 200.598 84.5826C199.982 84.0039 199.207 83.7146 198.274 83.7146C197.34 83.7146 196.566 84.0039 195.95 84.5826C195.334 85.1426 195.026 85.9079 195.026 86.8786C195.026 87.8493 195.334 88.6239 195.95 89.2026ZM210.907 92.9826C210.441 93.4493 209.881 93.6826 209.227 93.6826C208.574 93.6826 208.014 93.4493 207.547 92.9826C207.081 92.5159 206.847 91.9559 206.847 91.3026C206.847 90.6493 207.081 90.0893 207.547 89.6226C208.014 89.1559 208.574 88.9226 209.227 88.9226C209.881 88.9226 210.441 89.1559 210.907 89.6226C211.374 90.0893 211.607 90.6493 211.607 91.3026C211.607 91.9559 211.374 92.5159 210.907 92.9826ZM220.94 93.7106C218.495 93.7106 216.572 92.7866 215.172 90.9386C213.791 89.0719 213.1 86.5986 213.1 83.5186C213.1 80.4386 213.791 77.9746 215.172 76.1266C216.572 74.2599 218.495 73.3266 220.94 73.3266C223.404 73.3266 225.327 74.2599 226.708 76.1266C228.089 77.9746 228.78 80.4386 228.78 83.5186C228.78 86.5986 228.089 89.0719 226.708 90.9386C225.327 92.7866 223.404 93.7106 220.94 93.7106ZM217.972 88.3066C218.644 89.3893 219.633 89.9306 220.94 89.9306C222.247 89.9306 223.236 89.3799 223.908 88.2786C224.599 87.1773 224.944 85.5906 224.944 83.5186C224.944 81.4279 224.599 79.8319 223.908 78.7306C223.236 77.6293 222.247 77.0786 220.94 77.0786C219.633 77.0786 218.644 77.6293 217.972 78.7306C217.3 79.8319 216.964 81.4279 216.964 83.5186C216.964 85.6093 217.3 87.2053 217.972 88.3066ZM238.577 93.7106C236.131 93.7106 234.209 92.7866 232.809 90.9386C231.427 89.0719 230.737 86.5986 230.737 83.5186C230.737 80.4386 231.427 77.9746 232.809 76.1266C234.209 74.2599 236.131 73.3266 238.577 73.3266C241.041 73.3266 242.963 74.2599 244.345 76.1266C245.726 77.9746 246.417 80.4386 246.417 83.5186C246.417 86.5986 245.726 89.0719 244.345 90.9386C242.963 92.7866 241.041 93.7106 238.577 93.7106ZM235.609 88.3066C236.281 89.3893 237.27 89.9306 238.577 89.9306C239.883 89.9306 240.873 89.3799 241.545 88.2786C242.235 87.1773 242.581 85.5906 242.581 83.5186C242.581 81.4279 242.235 79.8319 241.545 78.7306C240.873 77.6293 239.883 77.0786 238.577 77.0786C237.27 77.0786 236.281 77.6293 235.609 78.7306C234.937 79.8319 234.601 81.4279 234.601 83.5186C234.601 85.6093 234.937 87.2053 235.609 88.3066Z" fill="#1E1E2D"/>
<path d="M0 193.963L10.8508 186.557C12.2664 185.59 14.1398 185.631 15.5126 186.657L23.038 192.283C24.3876 193.292 26.2241 193.35 27.6343 192.427L36.6992 186.497C38.1242 185.565 39.9825 185.634 41.3339 186.67L54.7833 196.979C56.5705 198.349 59.1351 197.979 60.4623 196.16L65.225 189.632C65.7821 188.868 66.5911 188.326 67.5091 188.101L101.324 179.806C102.315 179.563 103.362 179.706 104.25 180.208L109.983 183.443C111.551 184.329 113.517 184.06 114.79 182.786L128.19 169.38C130.077 167.491 133.281 168.146 134.275 170.624V170.624C135.221 172.982 138.199 173.719 140.136 172.076L156.339 158.325C157.063 157.71 157.983 157.372 158.933 157.372H167.618C169.141 157.372 170.532 158.235 171.21 159.598L175.396 168.025C176.523 170.292 179.443 170.961 181.444 169.41L201.627 153.762C202.748 152.893 204.244 152.68 205.562 153.203L213.836 156.484C215.216 157.03 216.784 156.771 217.914 155.809L239.091 137.778C239.816 137.16 240.737 136.821 241.69 136.821H257.354C258.168 136.821 258.963 137.069 259.632 137.531L269.326 144.225C271.056 145.419 273.415 145.075 274.732 143.435L295.78 117.207C296.271 116.596 296.93 116.141 297.676 115.901L354 97.7236" stroke="url(#paint0_linear_48_1280)" stroke-width="3"/>
<path d="M13.2175 184.941L0 193.963V273.903H354V97.7236L296.532 116.27L272.396 146.345L258.604 136.821H240.214L216.078 157.372L203.435 152.36L177.575 172.41L170.104 157.372H157.461L136.198 175.417L132.175 165.392L112.636 184.941L102.867 179.427L66.0877 188.45L58.0422 199.477L39.0779 184.941L25.2857 193.963L13.2175 184.941Z" fill="url(#paint1_linear_48_1280)"/>
<path d="M28.3916 256.777V262.377H27.6556V258.001L25.8236 261.049H25.7276L23.8956 258.009V262.377H23.1516V256.777H23.9916L25.7756 259.737L27.5516 256.777H28.3916ZM32.8931 261.873C32.4825 262.279 31.9838 262.481 31.3971 262.481C30.8105 262.481 30.3118 262.279 29.9011 261.873C29.4958 261.468 29.2931 260.969 29.2931 260.377C29.2931 259.785 29.4958 259.287 29.9011 258.881C30.3118 258.476 30.8105 258.273 31.3971 258.273C31.9838 258.273 32.4825 258.476 32.8931 258.881C33.3038 259.287 33.5091 259.785 33.5091 260.377C33.5091 260.969 33.3038 261.468 32.8931 261.873ZM31.3971 261.801C31.7971 261.801 32.1331 261.665 32.4051 261.393C32.6771 261.121 32.8131 260.783 32.8131 260.377C32.8131 259.972 32.6771 259.633 32.4051 259.361C32.1331 259.089 31.7971 258.953 31.3971 258.953C31.0025 258.953 30.6691 259.089 30.3971 259.361C30.1251 259.633 29.9891 259.972 29.9891 260.377C29.9891 260.783 30.1251 261.121 30.3971 261.393C30.6691 261.665 31.0025 261.801 31.3971 261.801ZM36.3216 258.273C36.791 258.273 37.167 258.423 37.4496 258.721C37.7323 259.015 37.8736 259.415 37.8736 259.921V262.377H37.1776V259.961C37.1776 259.636 37.0896 259.385 36.9136 259.209C36.7376 259.028 36.495 258.937 36.1856 258.937C35.839 258.937 35.559 259.047 35.3456 259.265C35.1323 259.479 35.0256 259.809 35.0256 260.257V262.377H34.3296V258.377H35.0256V258.953C35.3083 258.5 35.7403 258.273 36.3216 258.273Z" fill="#A1A2AF"/>
<path d="M77.2928 256.777V257.481H75.6368V262.377H74.9008V257.481H73.2528V256.777H77.2928ZM80.0765 258.377H80.7725V262.377H80.0765V261.801C79.7938 262.255 79.3618 262.481 78.7805 262.481C78.3112 262.481 77.9352 262.335 77.6525 262.041C77.3698 261.743 77.2285 261.34 77.2285 260.833V258.377H77.9245V260.793C77.9245 261.119 78.0125 261.372 78.1885 261.553C78.3645 261.729 78.6072 261.817 78.9165 261.817C79.2632 261.817 79.5432 261.711 79.7565 261.497C79.9698 261.279 80.0765 260.945 80.0765 260.497V258.377ZM82.3201 260.697C82.3895 261.055 82.5521 261.332 82.8081 261.529C83.0695 261.727 83.3895 261.825 83.7681 261.825C84.2961 261.825 84.6801 261.631 84.9201 261.241L85.5121 261.577C85.1228 262.18 84.5361 262.481 83.7521 262.481C83.1175 262.481 82.6001 262.284 82.2001 261.889C81.8055 261.489 81.6081 260.985 81.6081 260.377C81.6081 259.775 81.8028 259.273 82.1921 258.873C82.5815 258.473 83.0855 258.273 83.7041 258.273C84.2908 258.273 84.7681 258.481 85.1361 258.897C85.5095 259.308 85.6961 259.804 85.6961 260.385C85.6961 260.487 85.6881 260.591 85.6721 260.697H82.3201ZM83.7041 258.929C83.3308 258.929 83.0215 259.036 82.7761 259.249C82.5308 259.457 82.3788 259.737 82.3201 260.089H84.9921C84.9335 259.711 84.7841 259.423 84.5441 259.225C84.3041 259.028 84.0241 258.929 83.7041 258.929Z" fill="#A1A2AF"/>
<path d="M122.67 262.377L121.062 256.777H121.846L123.126 261.385L124.486 256.777H125.238L126.598 261.385L127.878 256.777H128.662L127.054 262.377H126.19L124.862 257.905L123.534 262.377H122.67ZM129.401 260.697C129.471 261.055 129.633 261.332 129.889 261.529C130.151 261.727 130.471 261.825 130.849 261.825C131.377 261.825 131.761 261.631 132.001 261.241L132.593 261.577C132.204 262.18 131.617 262.481 130.833 262.481C130.199 262.481 129.681 262.284 129.281 261.889C128.887 261.489 128.689 260.985 128.689 260.377C128.689 259.775 128.884 259.273 129.273 258.873C129.663 258.473 130.167 258.273 130.785 258.273C131.372 258.273 131.849 258.481 132.217 258.897C132.591 259.308 132.777 259.804 132.777 260.385C132.777 260.487 132.769 260.591 132.753 260.697H129.401ZM130.785 258.929C130.412 258.929 130.103 259.036 129.857 259.249C129.612 259.457 129.46 259.737 129.401 260.089H132.073C132.015 259.711 131.865 259.423 131.625 259.225C131.385 259.028 131.105 258.929 130.785 258.929ZM136.882 256.777H137.578V262.377H136.882V261.689C136.535 262.217 136.031 262.481 135.37 262.481C134.81 262.481 134.332 262.279 133.938 261.873C133.543 261.463 133.346 260.964 133.346 260.377C133.346 259.791 133.543 259.295 133.938 258.889C134.332 258.479 134.81 258.273 135.37 258.273C136.031 258.273 136.535 258.537 136.882 259.065V256.777ZM135.458 261.809C135.863 261.809 136.202 261.673 136.474 261.401C136.746 261.124 136.882 260.783 136.882 260.377C136.882 259.972 136.746 259.633 136.474 259.361C136.202 259.084 135.863 258.945 135.458 258.945C135.058 258.945 134.722 259.084 134.45 259.361C134.178 259.633 134.042 259.972 134.042 260.377C134.042 260.783 134.178 261.124 134.45 261.401C134.722 261.673 135.058 261.809 135.458 261.809Z" fill="#A1A2AF"/>
<path opacity="0.82" d="M177.194 258.077V259.067H175.421V264.377H174.386V259.067H172.604V258.077H177.194ZM180.263 259.76C180.779 259.76 181.196 259.925 181.514 260.255C181.832 260.585 181.991 261.038 181.991 261.614V264.377H181.019V261.713C181.019 261.377 180.929 261.119 180.749 260.939C180.569 260.759 180.323 260.669 180.011 260.669C179.669 260.669 179.393 260.777 179.183 260.993C178.973 261.203 178.868 261.527 178.868 261.965V264.377H177.896V258.077H178.868V260.453C179.162 259.991 179.627 259.76 180.263 259.76ZM186.071 259.877H187.043V264.377H186.071V263.801C185.777 264.263 185.312 264.494 184.676 264.494C184.16 264.494 183.743 264.329 183.425 263.999C183.107 263.669 182.948 263.216 182.948 262.64V259.877H183.92V262.541C183.92 262.877 184.01 263.135 184.19 263.315C184.37 263.495 184.616 263.585 184.928 263.585C185.27 263.585 185.546 263.48 185.756 263.27C185.966 263.054 186.071 262.727 186.071 262.289V259.877Z" fill="#1E1E2D"/>
<path d="M228.973 257.481H226.493V259.297H228.869V260.001H226.493V262.377H225.749V256.777H228.973V257.481ZM230.498 259.049C230.728 258.553 231.144 258.305 231.746 258.305V259.033C231.405 259.017 231.112 259.108 230.866 259.305C230.621 259.503 230.498 259.82 230.498 260.257V262.377H229.802V258.377H230.498V259.049ZM232.779 257.649C232.646 257.649 232.534 257.604 232.443 257.513C232.353 257.423 232.307 257.313 232.307 257.185C232.307 257.057 232.353 256.948 232.443 256.857C232.534 256.761 232.646 256.713 232.779 256.713C232.907 256.713 233.017 256.761 233.107 256.857C233.198 256.948 233.243 257.057 233.243 257.185C233.243 257.313 233.198 257.423 233.107 257.513C233.017 257.604 232.907 257.649 232.779 257.649ZM232.427 262.377V258.377H233.123V262.377H232.427Z" fill="#A1A2AF"/>
<path d="M274.159 262.481C273.636 262.481 273.188 262.359 272.815 262.113C272.447 261.868 272.188 261.532 272.039 261.105L272.679 260.737C272.897 261.415 273.396 261.753 274.175 261.753C274.559 261.753 274.852 261.676 275.055 261.521C275.257 261.361 275.359 261.151 275.359 260.889C275.359 260.623 275.257 260.423 275.055 260.289C274.852 260.156 274.513 260.015 274.039 259.865C273.804 259.791 273.625 259.732 273.503 259.689C273.38 259.641 273.225 259.572 273.039 259.481C272.857 259.385 272.721 259.289 272.631 259.193C272.54 259.092 272.457 258.961 272.383 258.801C272.313 258.641 272.279 258.46 272.279 258.257C272.279 257.772 272.449 257.388 272.791 257.105C273.132 256.817 273.548 256.673 274.039 256.673C274.481 256.673 274.865 256.785 275.191 257.009C275.521 257.233 275.769 257.529 275.935 257.897L275.311 258.257C275.071 257.681 274.647 257.393 274.039 257.393C273.735 257.393 273.489 257.468 273.303 257.617C273.116 257.767 273.023 257.969 273.023 258.225C273.023 258.471 273.111 258.657 273.287 258.785C273.463 258.913 273.767 259.047 274.199 259.185C274.353 259.233 274.463 259.268 274.527 259.289C274.591 259.311 274.689 259.348 274.823 259.401C274.961 259.455 275.063 259.497 275.127 259.529C275.191 259.561 275.276 259.607 275.383 259.665C275.495 259.724 275.577 259.78 275.631 259.833C275.684 259.887 275.745 259.953 275.815 260.033C275.889 260.108 275.943 260.185 275.975 260.265C276.007 260.345 276.033 260.439 276.055 260.545C276.081 260.647 276.095 260.756 276.095 260.873C276.095 261.364 275.916 261.756 275.559 262.049C275.201 262.337 274.735 262.481 274.159 262.481ZM280.31 258.377H281.006V262.377H280.31V261.689C279.963 262.217 279.459 262.481 278.798 262.481C278.238 262.481 277.76 262.279 277.366 261.873C276.971 261.463 276.774 260.964 276.774 260.377C276.774 259.791 276.971 259.295 277.366 258.889C277.76 258.479 278.238 258.273 278.798 258.273C279.459 258.273 279.963 258.537 280.31 259.065V258.377ZM278.886 261.809C279.291 261.809 279.63 261.673 279.902 261.401C280.174 261.124 280.31 260.783 280.31 260.377C280.31 259.972 280.174 259.633 279.902 259.361C279.63 259.084 279.291 258.945 278.886 258.945C278.486 258.945 278.15 259.084 277.878 259.361C277.606 259.633 277.47 259.972 277.47 260.377C277.47 260.783 277.606 261.124 277.878 261.401C278.15 261.673 278.486 261.809 278.886 261.809ZM284.236 259.049H283.172V261.217C283.172 261.415 283.209 261.556 283.284 261.641C283.364 261.721 283.484 261.764 283.644 261.769C283.804 261.769 284.001 261.764 284.236 261.753V262.377C283.628 262.457 283.183 262.409 282.9 262.233C282.617 262.052 282.476 261.713 282.476 261.217V259.049H281.684V258.377H282.476V257.465L283.172 257.257V258.377H284.236V259.049Z" fill="#A1A2AF"/>
<path d="M322.045 262.481C321.522 262.481 321.074 262.359 320.701 262.113C320.333 261.868 320.074 261.532 319.925 261.105L320.565 260.737C320.784 261.415 321.282 261.753 322.061 261.753C322.445 261.753 322.738 261.676 322.941 261.521C323.144 261.361 323.245 261.151 323.245 260.889C323.245 260.623 323.144 260.423 322.941 260.289C322.738 260.156 322.4 260.015 321.925 259.865C321.69 259.791 321.512 259.732 321.389 259.689C321.266 259.641 321.112 259.572 320.925 259.481C320.744 259.385 320.608 259.289 320.517 259.193C320.426 259.092 320.344 258.961 320.269 258.801C320.2 258.641 320.165 258.46 320.165 258.257C320.165 257.772 320.336 257.388 320.677 257.105C321.018 256.817 321.434 256.673 321.925 256.673C322.368 256.673 322.752 256.785 323.077 257.009C323.408 257.233 323.656 257.529 323.821 257.897L323.197 258.257C322.957 257.681 322.533 257.393 321.925 257.393C321.621 257.393 321.376 257.468 321.189 257.617C321.002 257.767 320.909 257.969 320.909 258.225C320.909 258.471 320.997 258.657 321.173 258.785C321.349 258.913 321.653 259.047 322.085 259.185C322.24 259.233 322.349 259.268 322.413 259.289C322.477 259.311 322.576 259.348 322.709 259.401C322.848 259.455 322.949 259.497 323.013 259.529C323.077 259.561 323.162 259.607 323.269 259.665C323.381 259.724 323.464 259.78 323.517 259.833C323.57 259.887 323.632 259.953 323.701 260.033C323.776 260.108 323.829 260.185 323.861 260.265C323.893 260.345 323.92 260.439 323.941 260.545C323.968 260.647 323.981 260.756 323.981 260.873C323.981 261.364 323.802 261.756 323.445 262.049C323.088 262.337 322.621 262.481 322.045 262.481ZM327.55 258.377H328.246V262.377H327.55V261.801C327.267 262.255 326.835 262.481 326.254 262.481C325.785 262.481 325.409 262.335 325.126 262.041C324.843 261.743 324.702 261.34 324.702 260.833V258.377H325.398V260.793C325.398 261.119 325.486 261.372 325.662 261.553C325.838 261.729 326.081 261.817 326.39 261.817C326.737 261.817 327.017 261.711 327.23 261.497C327.443 261.279 327.55 260.945 327.55 260.497V258.377ZM331.297 258.273C331.767 258.273 332.143 258.423 332.425 258.721C332.708 259.015 332.849 259.415 332.849 259.921V262.377H332.153V259.961C332.153 259.636 332.065 259.385 331.889 259.209C331.713 259.028 331.471 258.937 331.161 258.937C330.815 258.937 330.535 259.047 330.321 259.265C330.108 259.479 330.001 259.809 330.001 260.257V262.377H329.305V258.377H330.001V258.953C330.284 258.5 330.716 258.273 331.297 258.273Z" fill="#A1A2AF"/>
<g filter="url(#filter1_d_48_1280)">
<ellipse rx="10.4156" ry="10.4053" transform="matrix(0.767859 -0.640619 0.644953 0.764222 178.354 170.183)" fill="white"/>
<path d="M184.432 165.112C187.247 168.447 186.811 173.422 183.453 176.224C180.094 179.027 175.091 178.589 172.276 175.254C169.462 171.919 169.897 166.944 173.256 164.142C176.614 161.34 181.618 161.777 184.432 165.112Z" stroke="#55C960" stroke-width="5"/>
</g>
<g filter="url(#filter2_bd_48_1280)">
<path fill-rule="evenodd" clip-rule="evenodd" d="M167.305 117.787C161.782 117.787 157.305 122.264 157.305 127.787V140.944C157.305 146.467 161.782 150.944 167.305 150.944H173.103C173.127 150.983 173.154 151.021 173.184 151.058L178.117 157.126C178.517 157.618 179.268 157.618 179.668 157.126L184.601 151.058C184.631 151.021 184.658 150.983 184.682 150.944H225.871C231.394 150.944 235.871 146.467 235.871 140.944V127.787C235.871 122.264 231.394 117.787 225.871 117.787H167.305Z" fill="white" fill-opacity="0.5"/>
<path d="M180.639 136.042C180.639 136.608 180.456 137.072 180.089 137.432C179.729 137.785 179.256 137.998 178.669 138.072V138.962H178.019V138.082C177.466 138.048 176.992 137.898 176.599 137.632C176.206 137.365 175.922 137.002 175.749 136.542L176.739 135.972C176.972 136.558 177.399 136.885 178.019 136.952V134.872C177.719 134.758 177.476 134.658 177.289 134.572C177.102 134.478 176.902 134.352 176.689 134.192C176.482 134.032 176.326 133.838 176.219 133.612C176.119 133.378 176.069 133.108 176.069 132.802C176.069 132.242 176.256 131.788 176.629 131.442C177.002 131.095 177.466 130.895 178.019 130.842V129.962H178.669V130.852C179.562 130.972 180.182 131.428 180.529 132.222L179.559 132.782C179.386 132.348 179.089 132.085 178.669 131.992V133.972C178.882 134.052 179.042 134.115 179.149 134.162C179.262 134.208 179.409 134.278 179.589 134.372C179.776 134.465 179.919 134.558 180.019 134.652C180.119 134.745 180.222 134.858 180.329 134.992C180.442 135.125 180.522 135.282 180.569 135.462C180.616 135.635 180.639 135.828 180.639 136.042ZM177.219 132.802C177.219 133.008 177.279 133.178 177.399 133.312C177.526 133.445 177.732 133.578 178.019 133.712V131.972C177.772 132.012 177.576 132.105 177.429 132.252C177.289 132.398 177.219 132.582 177.219 132.802ZM178.669 136.942C178.936 136.888 179.139 136.782 179.279 136.622C179.419 136.462 179.489 136.272 179.489 136.052C179.489 135.832 179.422 135.655 179.289 135.522C179.156 135.382 178.949 135.248 178.669 135.122V136.942ZM185.167 134.322C185.854 134.702 186.197 135.268 186.197 136.022C186.197 136.662 185.974 137.168 185.527 137.542C185.081 137.908 184.487 138.092 183.747 138.092C183.007 138.092 182.411 137.908 181.957 137.542C181.511 137.168 181.287 136.662 181.287 136.022C181.287 135.662 181.377 135.335 181.557 135.042C181.737 134.742 181.991 134.502 182.317 134.322C181.791 133.975 181.527 133.482 181.527 132.842C181.527 132.202 181.741 131.708 182.167 131.362C182.594 131.008 183.121 130.832 183.747 130.832C184.367 130.832 184.891 131.008 185.317 131.362C185.751 131.708 185.967 132.202 185.967 132.842C185.967 133.482 185.701 133.975 185.167 134.322ZM183.747 131.922C183.434 131.922 183.177 132.005 182.977 132.172C182.777 132.338 182.677 132.578 182.677 132.892C182.677 133.192 182.777 133.428 182.977 133.602C183.184 133.775 183.441 133.862 183.747 133.862C184.047 133.862 184.301 133.775 184.507 133.602C184.714 133.428 184.817 133.192 184.817 132.892C184.817 132.578 184.714 132.338 184.507 132.172C184.307 132.005 184.054 131.922 183.747 131.922ZM183.747 137.002C184.134 137.002 184.447 136.908 184.687 136.722C184.927 136.528 185.047 136.258 185.047 135.912C185.047 135.565 184.927 135.298 184.687 135.112C184.447 134.918 184.134 134.822 183.747 134.822C183.354 134.822 183.037 134.918 182.797 135.112C182.557 135.298 182.437 135.565 182.437 135.912C182.437 136.258 182.557 136.528 182.797 136.722C183.037 136.908 183.354 137.002 183.747 137.002ZM188.673 136.762L187.973 139.362H187.073L187.473 136.762H188.673ZM193.419 134.322C194.106 134.702 194.449 135.268 194.449 136.022C194.449 136.662 194.226 137.168 193.779 137.542C193.333 137.908 192.739 138.092 191.999 138.092C191.259 138.092 190.663 137.908 190.209 137.542C189.763 137.168 189.539 136.662 189.539 136.022C189.539 135.662 189.629 135.335 189.809 135.042C189.989 134.742 190.243 134.502 190.569 134.322C190.043 133.975 189.779 133.482 189.779 132.842C189.779 132.202 189.993 131.708 190.419 131.362C190.846 131.008 191.373 130.832 191.999 130.832C192.619 130.832 193.143 131.008 193.569 131.362C194.003 131.708 194.219 132.202 194.219 132.842C194.219 133.482 193.953 133.975 193.419 134.322ZM191.999 131.922C191.686 131.922 191.429 132.005 191.229 132.172C191.029 132.338 190.929 132.578 190.929 132.892C190.929 133.192 191.029 133.428 191.229 133.602C191.436 133.775 191.693 133.862 191.999 133.862C192.299 133.862 192.553 133.775 192.759 133.602C192.966 133.428 193.069 133.192 193.069 132.892C193.069 132.578 192.966 132.338 192.759 132.172C192.559 132.005 192.306 131.922 191.999 131.922ZM191.999 137.002C192.386 137.002 192.699 136.908 192.939 136.722C193.179 136.528 193.299 136.258 193.299 135.912C193.299 135.565 193.179 135.298 192.939 135.112C192.699 134.918 192.386 134.822 191.999 134.822C191.606 134.822 191.289 134.918 191.049 135.112C190.809 135.298 190.689 135.565 190.689 135.912C190.689 136.258 190.809 136.528 191.049 136.722C191.289 136.908 191.606 137.002 191.999 137.002ZM197.622 133.312C198.349 133.312 198.942 133.535 199.402 133.982C199.862 134.422 200.092 134.995 200.092 135.702C200.092 136.408 199.862 136.985 199.402 137.432C198.942 137.872 198.349 138.092 197.622 138.092C196.889 138.092 196.292 137.872 195.832 137.432C195.372 136.985 195.142 136.408 195.142 135.702C195.142 135.168 195.282 134.698 195.562 134.292L197.782 130.962H199.092L197.492 133.312H197.622ZM197.622 137.002C198.009 137.002 198.326 136.885 198.572 136.652C198.819 136.412 198.942 136.095 198.942 135.702C198.942 135.308 198.819 134.995 198.572 134.762C198.326 134.522 198.009 134.402 197.622 134.402C197.229 134.402 196.909 134.522 196.662 134.762C196.416 134.995 196.292 135.308 196.292 135.702C196.292 136.095 196.416 136.412 196.662 136.652C196.909 136.885 197.229 137.002 197.622 137.002ZM200.189 130.962H204.639V131.962L202.179 137.962H200.969L203.389 132.062H200.189V130.962ZM205.247 137.862C205.101 138.008 204.924 138.082 204.717 138.082C204.511 138.082 204.334 138.008 204.187 137.862C204.041 137.715 203.967 137.538 203.967 137.332C203.967 137.125 204.037 136.948 204.177 136.802C204.324 136.655 204.504 136.582 204.717 136.582C204.924 136.582 205.101 136.655 205.247 136.802C205.394 136.948 205.467 137.125 205.467 137.332C205.467 137.538 205.394 137.715 205.247 137.862ZM209.326 133.822C209.833 133.942 210.243 134.178 210.556 134.532C210.876 134.878 211.036 135.315 211.036 135.842C211.036 136.542 210.799 137.092 210.326 137.492C209.853 137.892 209.273 138.092 208.586 138.092C208.053 138.092 207.573 137.968 207.146 137.722C206.726 137.475 206.423 137.115 206.236 136.642L207.216 136.072C207.423 136.672 207.879 136.972 208.586 136.972C208.986 136.972 209.303 136.872 209.536 136.672C209.769 136.465 209.886 136.188 209.886 135.842C209.886 135.495 209.769 135.222 209.536 135.022C209.303 134.822 208.986 134.722 208.586 134.722H208.326L207.866 134.032L209.376 132.042H206.446V130.962H210.746V131.942L209.326 133.822ZM216.557 137.102C216.077 137.762 215.403 138.092 214.537 138.092C213.67 138.092 212.993 137.762 212.507 137.102C212.027 136.442 211.787 135.562 211.787 134.462C211.787 133.362 212.027 132.482 212.507 131.822C212.993 131.162 213.67 130.832 214.537 130.832C215.403 130.832 216.077 131.162 216.557 131.822C217.043 132.482 217.287 133.362 217.287 134.462C217.287 135.562 217.043 136.442 216.557 137.102ZM214.537 136.972C215.057 136.972 215.453 136.755 215.727 136.322C216 135.888 216.137 135.268 216.137 134.462C216.137 133.655 216 133.035 215.727 132.602C215.453 132.168 215.057 131.952 214.537 131.952C214.023 131.952 213.627 132.168 213.347 132.602C213.073 133.035 212.937 133.655 212.937 134.462C212.937 135.268 213.073 135.888 213.347 136.322C213.627 136.755 214.023 136.972 214.537 136.972Z" fill="#1E1E2D"/>
</g>
<defs>
<filter id="filter0_d_48_1280" x="-54" y="-40" width="462" height="396" filterUnits="userSpaceOnUse" color-interpolation-filters="sRGB">
<feFlood flood-opacity="0" result="BackgroundImageFix"/>
<feColorMatrix in="SourceAlpha" type="matrix" values="0 0 0 0 0 0 0 0 0 0 0 0 0 0 0 0 0 0 127 0" result="hardAlpha"/>
<feOffset dy="14"/>
<feGaussianBlur stdDeviation="27"/>
<feComposite in2="hardAlpha" operator="out"/>
<feColorMatrix type="matrix" values="0 0 0 0 0 0 0 0 0 0 0 0 0 0 0 0 0 0 0.03 0"/>
<feBlend mode="normal" in2="BackgroundImageFix" result="effect1_dropShadow_48_1280"/>
<feBlend mode="normal" in="SourceGraphic" in2="effect1_dropShadow_48_1280" result="shape"/>
</filter>
<filter id="filter1_d_48_1280" x="142.914" y="138.802" width="70.8811" height="70.7615" filterUnits="userSpaceOnUse" color-interpolation-filters="sRGB">
<feFlood flood-opacity="0" result="BackgroundImageFix"/>
<feColorMatrix in="SourceAlpha" type="matrix" values="0 0 0 0 0 0 0 0 0 0 0 0 0 0 0 0 0 0 127 0" result="hardAlpha"/>
<feOffset dy="4"/>
<feGaussianBlur stdDeviation="12.5"/>
<feColorMatrix type="matrix" values="0 0 0 0 0.329412 0 0 0 0 0.788235 0 0 0 0 0.376471 0 0 0 0.4 0"/>
<feBlend mode="normal" in2="BackgroundImageFix" result="effect1_dropShadow_48_1280"/>
<feBlend mode="normal" in="SourceGraphic" in2="effect1_dropShadow_48_1280" result="shape"/>
</filter>
<filter id="filter2_bd_48_1280" x="123.305" y="87.7869" width="146.567" height="107.708" filterUnits="userSpaceOnUse" color-interpolation-filters="sRGB">
<feFlood flood-opacity="0" result="BackgroundImageFix"/>
<feGaussianBlur in="BackgroundImageFix" stdDeviation="11"/>
<feComposite in2="SourceAlpha" operator="in" result="effect1_backgroundBlur_48_1280"/>
<feColorMatrix in="SourceAlpha" type="matrix" values="0 0 0 0 0 0 0 0 0 0 0 0 0 0 0 0 0 0 127 0" result="hardAlpha"/>
<feOffset dy="4"/>
<feGaussianBlur stdDeviation="17"/>
<feComposite in2="hardAlpha" operator="out"/>
<feColorMatrix type="matrix" values="0 0 0 0 0.375 0 0 0 0 0.375 0 0 0 0 0.375 0 0 0 0.1 0"/>
<feBlend mode="normal" in2="effect1_backgroundBlur_48_1280" result="effect2_dropShadow_48_1280"/>
<feBlend mode="normal" in="SourceGraphic" in2="effect2_dropShadow_48_1280" result="shape"/>
</filter>
<linearGradient id="paint0_linear_48_1280" x1="363.331" y1="93.9317" x2="-20.5499" y2="199.477" gradientUnits="userSpaceOnUse">
<stop stop-color="#55C960" stop-opacity="0"/>
<stop offset="0.0001" stop-color="#55C960" stop-opacity="0"/>
<stop offset="0.510417" stop-color="#55C960"/>
<stop offset="0.963542" stop-color="#55C960" stop-opacity="0"/>
</linearGradient>
<linearGradient id="paint1_linear_48_1280" x1="177" y1="97.7236" x2="177" y2="319.615" gradientUnits="userSpaceOnUse">
<stop offset="0.210124" stop-color="#55C960" stop-opacity="0.18"/>
<stop offset="0.577181" stop-color="#55C960" stop-opacity="0"/>
</linearGradient>
</defs>
</svg>
