<svg width="655" height="184" viewBox="0 0 655 184" fill="none" xmlns="http://www.w3.org/2000/svg">
<rect y="0.147705" width="655" height="183.852" rx="18" fill="#55C960"/>
<mask id="mask0_4_5009" style="mask-type:alpha" maskUnits="userSpaceOnUse" x="0" y="0" width="655" height="184">
<rect y="0.147705" width="655" height="183.852" rx="18" fill="#045AFC"/>
</mask>
<g mask="url(#mask0_4_5009)">
<g opacity="0.1">
<path d="M421.638 101.943C429.13 99.2213 437.503 100.695 443.61 105.81L481.186 137.279C487.308 142.406 490.224 150.412 488.835 158.278L480.33 206.415C478.941 214.281 473.457 220.809 465.947 223.537L419.853 240.282C412.361 243.003 403.989 241.53 397.881 236.415L360.305 204.946C354.183 199.819 351.267 191.812 352.657 183.947L361.161 135.809C362.551 127.943 368.035 121.415 375.545 118.687L421.638 101.943Z" stroke="white" stroke-width="4"/>
<path d="M524.361 120.021C531.853 117.299 540.226 118.772 546.333 123.887L583.909 155.356C590.031 160.483 592.947 168.49 591.558 176.355L583.053 224.493C581.664 232.359 576.18 238.887 568.67 241.615L522.576 258.359C515.084 261.081 506.712 259.607 500.604 254.492L463.028 223.024C456.906 217.897 453.99 209.89 455.38 202.024L463.884 153.887C465.274 146.021 470.758 139.493 478.268 136.765L524.361 120.021Z" stroke="white" stroke-width="4"/>
<path d="M441.984 -13.2209C449.476 -15.9425 457.849 -14.4691 463.956 -9.35421L501.532 22.1147C507.654 27.2417 510.57 35.2482 509.181 43.114L500.676 91.2515C499.287 99.1173 493.803 105.645 486.293 108.373L440.199 125.118C432.707 127.839 424.335 126.366 418.227 121.251L380.651 89.7821C374.529 84.6551 371.613 76.6486 373.003 68.7828L381.507 20.6453C382.897 12.7795 388.381 6.25137 395.89 3.52334L441.984 -13.2209Z" stroke="white" stroke-width="4"/>
<path d="M544.707 4.85673C552.199 2.13516 560.572 3.60855 566.679 8.72343L604.255 40.1923C610.377 45.3193 613.293 53.3258 611.904 61.1916L603.399 109.329C602.01 117.195 596.526 123.723 589.016 126.451L542.922 143.195C535.43 145.917 527.058 144.444 520.95 139.329L483.374 107.86C477.252 102.733 474.336 94.7263 475.726 86.8605L484.23 38.723C485.62 30.8572 491.104 24.329 498.613 21.601L544.707 4.85673Z" stroke="white" stroke-width="4"/>
<path d="M622.863 137.356C630.355 134.634 638.727 136.107 644.835 141.222L682.411 172.691C688.533 177.818 691.449 185.825 690.059 193.69L681.555 241.828C680.165 249.694 674.681 256.222 667.172 258.95L621.078 275.694C613.586 278.416 605.213 276.942 599.106 271.827L561.53 240.359C555.408 235.232 552.492 227.225 553.881 219.359L562.386 171.222C563.775 163.356 569.259 156.828 576.769 154.1L622.863 137.356Z" stroke="white" stroke-width="4"/>
<path d="M725.586 155.433C733.078 152.712 741.45 154.185 747.558 159.3L785.134 190.769C791.256 195.896 794.172 203.902 792.782 211.768L784.278 259.906C782.888 267.771 777.404 274.299 769.895 277.028L723.801 293.772C716.309 296.493 707.936 295.02 701.829 289.905L664.253 258.436C658.131 253.309 655.215 245.303 656.604 237.437L665.109 189.299C666.498 181.434 671.982 174.905 679.492 172.177L725.586 155.433Z" stroke="white" stroke-width="4"/>
<path d="M643.209 22.1917C650.701 19.4701 659.073 20.9435 665.181 26.0584L702.757 57.5273C708.879 62.6543 711.795 70.6608 710.405 78.5266L701.901 126.664C700.511 134.53 695.027 141.058 687.517 143.786L641.424 160.53C633.932 163.252 625.559 161.778 619.452 156.664L581.876 125.195C575.754 120.068 572.837 112.061 574.227 104.195L582.732 56.0579C584.121 48.1921 589.605 41.664 597.115 38.9359L643.209 22.1917Z" stroke="white" stroke-width="4"/>
<path d="M13.5378 30.1231C21.0298 27.4015 29.4021 28.8749 35.5096 33.9898L73.0856 65.4587C79.2076 70.5857 82.1239 78.5922 80.7342 86.458L72.2298 134.595C70.8401 142.461 65.3561 148.989 57.8463 151.717L11.7525 168.462C4.2605 171.183 -4.1118 169.71 -10.2193 164.595L-47.7954 133.126C-53.9174 127.999 -56.8336 119.993 -55.4439 112.127L-46.9395 63.9893C-45.5499 56.1235 -40.0658 49.5954 -32.5561 46.8673L13.5378 30.1231Z" stroke="white" stroke-width="4"/>
<path d="M116.261 48.2007C123.753 45.4792 132.125 46.9525 138.233 52.0674L175.809 83.5363C181.931 88.6633 184.847 96.6698 183.457 104.536L174.953 152.673C173.563 160.539 168.079 167.067 160.569 169.795L114.476 186.539C106.984 189.261 98.6112 187.788 92.5037 182.673L54.9276 151.204C48.8056 146.077 45.8894 138.07 47.2791 130.204L55.7835 82.067C57.1732 74.2012 62.6572 67.673 70.1669 64.945L116.261 48.2007Z" stroke="white" stroke-width="4"/>
<path d="M33.8837 -85.0407C41.3757 -87.7623 49.748 -86.2889 55.8555 -81.174L93.4316 -49.7051C99.5536 -44.5781 102.47 -36.5716 101.08 -28.7058L92.5757 19.4316C91.1861 27.2974 85.702 33.8256 78.1923 36.5536L32.0984 53.2979C24.6064 56.0195 16.2341 54.5461 10.1266 49.4312L-27.4494 17.9623C-33.5714 12.8353 -36.4876 4.82879 -35.098 -3.03701L-26.5936 -51.1745C-25.2039 -59.0403 -19.7199 -65.5685 -12.2101 -68.2965L33.8837 -85.0407Z" stroke="white" stroke-width="4"/>
<path d="M136.607 -66.9631C144.099 -69.6847 152.471 -68.2113 158.579 -63.0964L196.155 -31.6275C202.277 -26.5005 205.193 -18.494 203.803 -10.6282L195.299 37.5093C193.909 45.3751 188.425 51.9032 180.915 54.6313L134.821 71.3755C127.329 74.0971 118.957 72.6237 112.85 67.5088L75.2736 36.0399C69.1516 30.9129 66.2354 22.9064 67.625 15.0406L76.1295 -33.0968C77.5191 -40.9626 83.0031 -47.4908 90.5129 -50.2188L136.607 -66.9631Z" stroke="white" stroke-width="4"/>
<path d="M214.762 65.5357C222.254 62.8141 230.627 64.2875 236.734 69.4024L274.31 100.871C280.432 105.998 283.348 114.005 281.959 121.871L273.454 170.008C272.065 177.874 266.581 184.402 259.071 187.13L212.977 203.874C205.485 206.596 197.113 205.122 191.005 200.008L153.429 168.539C147.307 163.412 144.391 155.405 145.781 147.539L154.285 99.4019C155.675 91.5361 161.159 85.008 168.669 82.2799L214.762 65.5357Z" stroke="white" stroke-width="4"/>
<path d="M317.485 83.6133C324.977 80.8917 333.35 82.3651 339.457 87.48L377.033 118.949C383.155 124.076 386.071 132.082 384.682 139.948L376.177 188.086C374.788 195.951 369.304 202.48 361.794 205.208L315.7 221.952C308.208 224.674 299.836 223.2 293.728 218.085L256.152 186.616C250.03 181.489 247.114 173.483 248.504 165.617L257.008 117.48C258.398 109.614 263.882 103.086 271.392 100.358L317.485 83.6133Z" stroke="white" stroke-width="4"/>
<path d="M235.108 -49.6281C242.6 -52.3497 250.973 -50.8763 257.08 -45.7614L294.656 -14.2925C300.778 -9.16553 303.694 -1.15903 302.305 6.70677L293.8 54.8442C292.411 62.71 286.927 69.2382 279.417 71.9662L233.323 88.7105C225.831 91.4321 217.459 89.9587 211.351 84.8438L173.775 53.3749C167.653 48.2479 164.737 40.2414 166.127 32.3756L174.631 -15.7619C176.021 -23.6277 181.505 -30.1559 189.014 -32.8839L235.108 -49.6281Z" stroke="white" stroke-width="4"/>
<path d="M337.831 -31.5505C345.323 -34.2721 353.696 -32.7987 359.803 -27.6838L397.379 3.7851C403.501 8.91211 406.417 16.9186 405.028 24.7844L396.523 72.9219C395.134 80.7877 389.65 87.3158 382.14 90.0439L336.046 106.788C328.554 109.51 320.182 108.036 314.074 102.921L276.498 71.4525C270.376 66.3255 267.46 58.319 268.85 50.4532L277.354 2.31576C278.744 -5.55005 284.228 -12.0782 291.737 -14.8062L337.831 -31.5505Z" stroke="white" stroke-width="4"/>
</g>
</g>
</svg>
