<svg width="25" height="25" viewBox="0 0 25 25" fill="none" xmlns="http://www.w3.org/2000/svg">
<path d="M7.65736 2.94995H5.75736C3.56736 2.94995 2.41736 4.09995 2.41736 6.27995V8.17995C2.41736 10.36 3.56736 11.51 5.74736 11.51H7.64736C9.82736 11.51 10.9774 10.36 10.9774 8.17995V6.27995C10.9874 4.09995 9.83736 2.94995 7.65736 2.94995Z" fill="#1E1E2D"/>
<path opacity="0.6" d="M19.0873 2.94995H17.1873C15.0073 2.94995 13.8573 4.09995 13.8573 6.27995V8.17995C13.8573 10.36 15.0073 11.51 17.1873 11.51H19.0873C21.2673 11.51 22.4173 10.36 22.4173 8.17995V6.27995C22.4173 4.09995 21.2673 2.94995 19.0873 2.94995Z" fill="#1E1E2D"/>
<path d="M19.0873 14.38H17.1873C15.0073 14.38 13.8573 15.53 13.8573 17.71V19.61C13.8573 21.79 15.0073 22.94 17.1873 22.94H19.0873C21.2673 22.94 22.4173 21.79 22.4173 19.61V17.71C22.4173 15.53 21.2673 14.38 19.0873 14.38Z" fill="#1E1E2D"/>
<path opacity="0.6" d="M7.65736 14.38H5.75736C3.56736 14.38 2.41736 15.53 2.41736 17.71V19.61C2.41736 21.8 3.56736 22.95 5.74736 22.95H7.64736C9.82736 22.95 10.9774 21.8 10.9774 19.62V17.72C10.9874 15.53 9.83736 14.38 7.65736 14.38Z" fill="#1E1E2D"/>
</svg>
