<svg width="25" height="25" viewBox="0 0 25 25" fill="none" xmlns="http://www.w3.org/2000/svg">
<g opacity="0.8">
<path d="M12.4174 23.6997C6.48736 23.6997 1.66736 18.8797 1.66736 12.9497C1.66736 7.01971 6.48736 2.19971 12.4174 2.19971C18.3474 2.19971 23.1674 7.01971 23.1674 12.9497C23.1674 18.8797 18.3474 23.6997 12.4174 23.6997ZM12.4174 3.69971C7.31736 3.69971 3.16736 7.84971 3.16736 12.9497C3.16736 18.0497 7.31736 22.1997 12.4174 22.1997C17.5174 22.1997 21.6674 18.0497 21.6674 12.9497C21.6674 7.84971 17.5174 3.69971 12.4174 3.69971Z" fill="#6F7181"/>
<path d="M12.4181 18.3388C12.2406 18.3388 12.0716 18.3135 11.928 18.2628C10.1112 17.6459 7.22961 15.4319 7.22961 12.1363C7.22961 10.3786 8.64926 8.95052 10.3985 8.95052C11.159 8.95052 11.8604 9.21248 12.4265 9.6857C12.9927 9.21248 13.7025 8.95052 14.4462 8.95052C16.1954 8.95052 17.615 10.3786 17.615 12.1363C17.615 15.4235 14.7335 17.6374 12.9082 18.2628C12.7646 18.3135 12.5871 18.3388 12.4181 18.3388ZM10.39 10.2265C9.34219 10.2265 8.48871 11.0884 8.48871 12.1447C8.48871 15.0939 11.3365 16.7332 12.3336 17.0713C12.3674 17.0797 12.4519 17.0797 12.4857 17.0713C13.4828 16.7332 16.3306 15.0939 16.3306 12.1447C16.3306 11.0884 15.4771 10.2265 14.4293 10.2265C13.8377 10.2265 13.2716 10.5138 12.9167 10.9955C12.6801 11.3166 12.1392 11.3166 11.9026 10.9955C11.7306 10.7555 11.5034 10.5603 11.2401 10.4265C10.9769 10.2926 10.6853 10.2241 10.39 10.2265Z" fill="#6F7181"/>
</g>
</svg>
