<svg width="25" height="25" viewBox="0 0 25 25" fill="none" xmlns="http://www.w3.org/2000/svg">
<path d="M9.17971 22.3647H9.30971C13.7497 22.3647 15.8897 20.6147 16.2597 16.6947C16.2997 16.2847 15.9997 15.9147 15.5797 15.8747C15.1797 15.8347 14.7997 16.1447 14.7597 16.5547C14.4697 19.6947 12.9897 20.8647 9.29971 20.8647H9.16971C5.09971 20.8647 3.65971 19.4247 3.65971 15.3547V8.83471C3.65971 4.76471 5.09971 3.32471 9.16971 3.32471H9.29971C13.0097 3.32471 14.4897 4.51471 14.7597 7.71471C14.8097 8.12471 15.1597 8.43471 15.5797 8.39471C15.6783 8.38701 15.7743 8.35992 15.8624 8.31501C15.9505 8.2701 16.0288 8.20824 16.0929 8.13299C16.157 8.05773 16.2056 7.97056 16.236 7.87647C16.2663 7.78239 16.2778 7.68324 16.2697 7.58471C15.9297 3.60471 13.7797 1.82471 9.30971 1.82471H9.17971C4.26971 1.82471 2.16971 3.92471 2.16971 8.83471V15.3547C2.16971 20.2647 4.26971 22.3647 9.17971 22.3647Z" fill="#353542"/>
<path d="M9.41968 12.8447H20.7997C21.2097 12.8447 21.5497 12.5047 21.5497 12.0947C21.5497 11.6847 21.2097 11.3447 20.7997 11.3447H9.41968C9.00968 11.3447 8.66968 11.6847 8.66968 12.0947C8.66968 12.5047 9.00968 12.8447 9.41968 12.8447Z" fill="#353542"/>
<path d="M18.5697 16.1947C18.7597 16.1947 18.9497 16.1247 19.0997 15.9747L22.4497 12.6247C22.5891 12.4836 22.6674 12.2931 22.6674 12.0947C22.6674 11.8963 22.5891 11.7058 22.4497 11.5647L19.0997 8.21469C18.8097 7.92469 18.3297 7.92469 18.0397 8.21469C17.7497 8.50469 17.7497 8.98469 18.0397 9.27469L20.8597 12.0947L18.0397 14.9147C17.7497 15.2047 17.7497 15.6847 18.0397 15.9747C18.1797 16.1247 18.3797 16.1947 18.5697 16.1947Z" fill="#353542"/>
</svg>
