<svg width="148" height="24" viewBox="0 0 148 24" fill="none" xmlns="http://www.w3.org/2000/svg">
<path d="M34.506 4.6V6.536H29.952V20H27.928V6.536H23.396V4.6H34.506ZM47.3769 4.6H49.4009V20H47.3769V13.07H39.8969V20H37.8509V4.6H39.8969V11.134H47.3769V4.6ZM58.7522 20.286C57.3149 20.286 56.0829 19.9487 55.0562 19.274C54.0442 18.5993 53.3329 17.6753 52.9222 16.502L54.6822 15.49C55.2836 17.3527 56.6549 18.284 58.7962 18.284C59.8522 18.284 60.6589 18.0713 61.2162 17.646C61.7736 17.206 62.0522 16.6267 62.0522 15.908C62.0522 15.1747 61.7736 14.6247 61.2162 14.258C60.6589 13.8913 59.7276 13.5027 58.4222 13.092C57.7769 12.8867 57.2856 12.7253 56.9482 12.608C56.6109 12.476 56.1856 12.2853 55.6722 12.036C55.1736 11.772 54.7996 11.508 54.5502 11.244C54.3009 10.9653 54.0736 10.606 53.8682 10.166C53.6776 9.726 53.5822 9.22733 53.5822 8.67C53.5822 7.33533 54.0516 6.27933 54.9902 5.502C55.9289 4.71 57.0729 4.314 58.4222 4.314C59.6396 4.314 60.6956 4.622 61.5902 5.238C62.4996 5.854 63.1816 6.668 63.6362 7.68L61.9202 8.67C61.2602 7.086 60.0942 6.294 58.4222 6.294C57.5862 6.294 56.9116 6.49933 56.3982 6.91C55.8849 7.32067 55.6282 7.878 55.6282 8.582C55.6282 9.25667 55.8702 9.77 56.3542 10.122C56.8382 10.474 57.6742 10.8407 58.8622 11.222C59.2876 11.354 59.5882 11.4493 59.7642 11.508C59.9402 11.5667 60.2116 11.6693 60.5782 11.816C60.9596 11.9627 61.2382 12.08 61.4142 12.168C61.5902 12.256 61.8249 12.3807 62.1182 12.542C62.4262 12.7033 62.6536 12.8573 62.8002 13.004C62.9469 13.1507 63.1156 13.334 63.3062 13.554C63.5116 13.7593 63.6582 13.972 63.7462 14.192C63.8342 14.412 63.9076 14.6687 63.9662 14.962C64.0396 15.2407 64.0762 15.5413 64.0762 15.864C64.0762 17.2133 63.5849 18.2913 62.6022 19.098C61.6196 19.89 60.3362 20.286 58.7522 20.286ZM77.1164 4.6V6.536H72.5624V20H70.5384V6.536H66.0064V4.6H77.1164ZM92.3844 17.954C90.8444 19.5087 88.9597 20.286 86.7304 20.286C84.5011 20.286 82.6164 19.5087 81.0764 17.954C79.5364 16.3993 78.7664 14.5147 78.7664 12.3C78.7664 10.0707 79.5364 8.186 81.0764 6.646C82.6164 5.09133 84.5011 4.314 86.7304 4.314C88.9597 4.314 90.8444 5.09133 92.3844 6.646C93.9391 8.186 94.7164 10.0707 94.7164 12.3C94.7164 14.5147 93.9391 16.3993 92.3844 17.954ZM82.4844 16.568C83.6284 17.712 85.0437 18.284 86.7304 18.284C88.4171 18.284 89.8251 17.712 90.9544 16.568C92.0984 15.4093 92.6704 13.9867 92.6704 12.3C92.6704 10.5987 92.0984 9.176 90.9544 8.032C89.8251 6.87333 88.4171 6.294 86.7304 6.294C85.0437 6.294 83.6284 6.87333 82.4844 8.032C81.3551 9.176 80.7904 10.5987 80.7904 12.3C80.7904 13.9867 81.3551 15.4093 82.4844 16.568ZM107.626 20L104.172 14.104H100.542V20H98.4961V4.6H104.656C105.976 4.6 107.105 5.06933 108.044 6.008C108.983 6.932 109.452 8.054 109.452 9.374C109.452 10.3713 109.151 11.2807 108.55 12.102C107.963 12.9233 107.201 13.5027 106.262 13.84L109.892 20H107.626ZM100.542 6.514V12.256H104.656C105.419 12.256 106.064 11.9773 106.592 11.42C107.135 10.848 107.406 10.166 107.406 9.374C107.406 8.582 107.135 7.90733 106.592 7.35C106.064 6.79267 105.419 6.514 104.656 6.514H100.542ZM115.311 18.064H122.461V20H113.265V4.6H122.351V6.536H115.311V11.266H121.801V13.18H115.311V18.064Z" fill="#1E1E2D"/>
<rect y="5" width="18" height="3" fill="#1E1E2D"/>
<rect y="11" width="18" height="3" fill="#1E1E2D"/>
<rect y="17" width="18" height="3" fill="#1E1E2D"/>
</svg>
